<?xml version="1.0"?>
<svg xmlns="http://www.w3.org/2000/svg" height="512px" viewBox="0 0 60 49" width="512px" class=""><g><g id="Page-1" fill="none" fill-rule="evenodd"><g id="003---Bow-Pose" fill="rgb(0,0,0)" fill-rule="nonzero"><path id="Shape" d="m53 2c-.917831-.00151876-1.8270293.17719509-2.676.526-1.2059651-2.10448172-3.7501307-3.03755643-6.0307671-2.21178856-2.2806365.82576786-3.6376631 3.17137771-3.2167371 5.56010466.4209261 2.38872695 2.4979769 4.1292058 4.9235042 4.1256839v1c.0056666 1.0232179.1866181 2.0378996.535 3h-24.764c.628-.43 1.245-.838 1.829-1.2 1.3239848-.9167311 2.2059289-2.3438497 2.4336714-3.93804694.2277425-1.59419729-.2193307-3.21117544-1.2336714-4.46195306-.3005122-.40120954-.8516397-.51793399-1.289-.273 0 0-1.99 1.116-2.445 1.362-6.766 3.64-15.593 9.173-19.189 14.869-1.29197913 1.9142874-1.9355329 4.192664-1.836 6.5.259 7.855 7.432 16.365 15.686 20.142h-11.727c-.55228475 0-1 .4477153-1 1s.44771525 1 1 1h47c.5522847 0 1-.4477153 1-1s-.4477153-1-1-1h-9.268c4.8648347-2.1884016 9.0049655-5.7183531 11.935-10.176 2.0100279-.6967646 3.6507854-2.1801596 4.546-4.11.6673731-1.6815857.5508039-3.5730857-.318-5.16-1.1747524-2.4667319-2.2214765-4.9924212-3.136-7.567.081 0 .16.013.241.013h2c1.6568542 0 3-1.3431458 3-3v-8c-.0044086-3.86416566-3.1358343-6.99559136-7-7zm3.519 3.454c-.64.686-1.95 1.546-4.519 1.546-.5470152.004264-.9907909.44404566-1 .991-.1593876 1.70378376-1.3228 3.1468247-2.954 3.664-.02-.217-.046-.434-.046-.655v-2c.0024152-2.01697638 1.2164704-3.8349931 3.078574-4.61008636 1.8621037-.77509327 4.0075701-.35546408 5.440426 1.06408636zm-13.519-.454c-.003261-1.36644588.9196571-2.56148557 2.2425458-2.90375825 1.3228886-.34227269 2.7095852.25519741 3.3694542 1.45175825-.1937692.15704026-.3793469.32392665-.556.5-1.0726479 1.06210503-1.7668719 2.44703981-1.976 3.942-.026 0-.055.01-.08.01-1.6568542 0-3-1.34314575-3-3zm-20.982 2.249c.26-.142 1.013-.561 1.62-.9.929497 1.65740727.4226202 3.7512186-1.162 4.8-1.244.767-2.7 1.774-4.127 2.852h-4.349c-.5522847 0-1 .4477153-1 1v1.457c-.8-.809-1.5-1.592-2.087-2.291 3.5296153-2.5713437 7.2410107-4.88340433 11.105-6.918zm14.116 24.66c-1.8556911-1.1330212-3.9630794-1.7888745-6.134-1.909-3.215 0-5.4 1.067-8.554 3.167-.2405551.1614827-.4712956.337126-.691.526-5.393-.994-9.062-3.991-9.517-4.673-.6845113-.8858327-1.1065292-1.9460748-1.218-3.06.0000596-.0370826-.0019435-.0741399-.006-.111.0624937-.2277875.1503781-.4478338.262-.656.9646603-1.7314478 2.1824166-3.309172 3.613-4.681.7589634.9405025 1.9024595 1.4874399 3.111 1.488h26.86c-1.16 7.042-6.152 9.352-7.726 9.909zm20.232.04c-.7494058 1.4952317-2.0809491 2.6163029-3.682 3.1-.2306897.0767828-.4255042.2349807-.548.445-.067.117-6.864 11.506-20.136 11.506h-7.989c-9.955-.1-21.659-10.873-21.971-20.18-.09509535-1.9217291.44464851-3.8213745 1.536-5.406 1.58454951-2.3006881 3.52593901-4.3338978 5.751-6.023 1.0345508 1.2446748 2.1457068 2.423629 3.327 3.53-1.655663 1.5625379-3.05900401 3.3723755-4.16 5.365-.34862919.5472891-.51362393 1.1915042-.471 1.839.14643222 1.4526289.68381376 2.8384166 1.555 4.01.964 1.445 5.4 4.528 10.816 5.526.1178327.0211051.2372923.031813.357.032.4702323.0013231.9257723-.1637482 1.286-.466.1647593-.1417256.3377256-.2736208.518-.395 2.937-1.958 4.709-2.832 7.445-2.832 1.7687943.1091481 3.4846257.6462034 5 1.565v6.435c0 .5522847.4477153 1 1 1s1-.4477153 1-1v-6.28c2.046-.768 7.74-3.644 8.887-11.857 1.2932945-.3337674 2.1752603-1.528783 2.113-2.863 0-.5522847-.4477153-1-1-1s-1 .4477153-1 1c.0261168.2741851-.0722548.5456088-.267977.7393932-.1957223.1937844-.4681113.2894505-.742023.2606068h-27.99c-.8654152-.0007785-1.6321542-.5580767-1.9-1.381-.007-.027-.015-.053-.024-.079-.0497954-.1757014-.0753649-.3573797-.076-.54v-2h32c1.1045695 0 2 .8954305 2 2 0 .5522847.4477153 1 1 1 .2017971-.0050405.397079-.0724634.559-.193.6143854.3506398 1.2683172.6269159 1.948.823 1.039125 3.0021454 2.2409029 5.9454999 3.6 8.817.6088385 1.0689075.7039665 2.3551555.259 3.502zm1.634-14.949c0 .5522847-.4477153 1-1 1h-2c-.4641558.0012515-.9273341-.0426215-1.383-.131-.0400557-.015018-.081168-.0270509-.123-.036-1.0190574-.2222563-1.9733301-.675955-2.789-1.326-.3390678-.8275818-.9457016-1.5176587-1.723-1.96-.1790154-.3005226-.3344805-.6144619-.465-.939 2.1686981-.6737815 3.8263177-2.4338404 4.369-4.639 1.744024-.04720708 3.419713-.68820222 4.75-1.817.2386107.58699003.3621852 1.21436834.364 1.848z" data-original="#000000" class="active-path" data-old_color="#000000" fill="#FFFFFF"/><path id="Shape" d="m56 49c.5522847 0 1-.4477153 1-1s-.4477153-1-1-1h-1c-.5522847 0-1 .4477153-1 1s.4477153 1 1 1z" data-original="#000000" class="active-path" data-old_color="#000000" fill="#FFFFFF"/></g></g></g> </svg>
